<?xml version="1.0" standalone="no"?>
<!DOCTYPE svg PUBLIC "-//W3C//DTD SVG 1.1//EN" 
  "http://www.w3.org/Graphics/SVG/1.1/DTD/svg11.dtd">
<svg width="304.200mm" height="162.000mm" version="1.1"
     viewBox="0 0 304.200 162.000"
     xmlns="http://www.w3.org/2000/svg"  xmlns:xlink="http://www.w3.org/1999/xlink" 
     xmlns:fpd="http://www.schaeffer-ag.de">
  <desc>Diese Zeichnung wurde mit dem Frontplatten Desinger durch den Export der Datei 'buzz1000.fpd' erzeugt.</desc>
  <defs>
    <pattern id="revside-fill" x="1" y="1" width="1.5" height="1.5" patternUnits="userSpaceOnUse">
      <line x1="0" y1="0" x2="1" y2="1" style="stroke-width:0.2; stroke:black; stroke-dasharray:none;" />
      <line x1="0" y1="1" x2="1" y2="0" style="stroke-width:0.2; stroke:black; stroke-dasharray:none;" />
    </pattern>
    <pattern id="revside-fill-e0e0e0" x="1" y="1" width="1.5" height="1.5" patternUnits="userSpaceOnUse">
      <line x1="0" y1="0" x2="1.5" y2="1.5" style="stroke-width:0.2; stroke:#e0e0e0; stroke-dasharray:none;" />
      <line x1="0" y1="1.5" x2="1.5" y2="0" style="stroke-width:0.2; stroke:#e0e0e0; stroke-dasharray:none;" />
    </pattern>
  </defs>
<g transform="scale(1,-1) translate(0, -162.000)" 
   fill-rule="evenodd"
   style="stroke-linecap:round; stroke-linejoin:round; stroke-opacity:1.0; stroke-opacity:1.0;">
<path d="M304.200 162.000 
L0.000 162.000
L0.000 162.000
L0.000 0.000
L0.000 0.000
L304.200 0.000
L304.200 0.000
L304.200 162.000
L304.200 162.000z"
fill="#cccccc" vector-effect="non-scaling-stroke" stroke="#000000" stroke-width="0.100mm" />
<path d="M49.804 6.594 
L49.804 3.288
L49.652 3.288
L49.652 6.670
L49.994 6.670
L49.994 3.288
L49.994 4.466
A0.932,0.932 0 0,0 50.412,5.188
A4.265,4.265 0 0,0 52.008,5.264
A0.471,0.471 0 0,0 52.426,4.922
A3.638,3.638 0 0,0 52.426,3.896
A0.496,0.496 0 0,0 52.160,3.592
A2.833,2.833 0 0,0 51.362,3.554
A4.113,4.113 0 0,0 50.336,3.668
A1.700,1.700 0 0,1 50.944,3.478
A3.523,3.523 0 0,1 52.046,3.440
A0.545,0.545 0 0,1 52.616,3.934
A6.944,6.944 0 0,1 52.616,4.808
A0.496,0.496 0 0,1 52.312,5.302
A2.456,2.456 0 0,1 51.096,5.378
L50.488 5.302
A2.187,2.187 0 0,0 50.944,5.454
A3.100,3.100 0 0,0 52.388,5.416
A0.518,0.518 0 0,0 52.768,4.960
A7.250,7.250 0 0,0 52.768,3.820
A0.493,0.493 0 0,0 52.274,3.364
A6.053,6.053 0 0,0 50.944,3.326
A0.755,0.755 0 0,0 50.184,4.124
A0.468,0.468 0 0,1 50.602,3.706
A5.878,5.878 0 0,1 51.894,3.706
A0.478,0.478 0 0,1 52.312,4.124
A2.766,2.766 0 0,1 52.312,4.732
A0.478,0.478 0 0,1 51.894,5.150
A5.878,5.878 0 0,1 50.602,5.150
A0.468,0.468 0 0,1 50.184,4.732
A2.766,2.766 0 0,1 50.184,4.124
L50.146 4.086
A0.829,0.829 0 0,1 50.906,3.250
A5.905,5.905 0 0,1 52.388,3.250
A0.663,0.663 0 0,1 52.958,3.820
A4.845,4.845 0 0,1 52.958,5.036
A0.663,0.663 0 0,1 52.388,5.606
A5.754,5.754 0 0,1 50.944,5.606
A0.981,0.981 0 0,1 50.146,5.036
L50.146 6.746
L49.500 6.746
L49.500 3.250
L50.146 3.250
L50.146 4.086
M57.100 5.454 
L57.100 3.364
L57.252 3.364
L57.252 5.492
L56.910 5.492
L56.910 3.364
L56.910 4.580
A5.969,5.969 0 0,0 56.568,3.706
A0.919,0.919 0 0,0 55.732,3.326
A8.853,8.853 0 0,0 54.896,3.326
A0.584,0.584 0 0,0 54.288,3.858
L54.288 5.530
L54.478 5.530
L54.478 3.934
A0.520,0.520 0 0,1 54.972,3.440
A4.495,4.495 0 0,1 55.960,3.440
A0.652,0.652 0 0,1 56.416,3.630
A1.951,1.951 0 0,0 55.694,3.516
A9.673,9.673 0 0,0 55.086,3.554
A0.460,0.460 0 0,0 54.668,4.010
L54.668 5.530
L54.820 5.606
L54.136 5.606
L54.136 3.858
A0.603,0.603 0 0,1 54.706,3.250
A12.877,12.877 0 0,1 55.922,3.250
A0.844,0.844 0 0,1 56.720,4.124
L56.720 3.250
L57.404 3.250
L57.404 5.606
L56.720 5.606
L56.720 4.162
A0.508,0.508 0 0,0 56.264,3.668
A4.495,4.495 0 0,0 55.276,3.668
A0.508,0.508 0 0,0 54.820,4.162
L54.820 5.606
M60.672 5.340 
L58.772 5.340
L58.772 5.492
L61.166 5.492
L61.166 5.074
L59.076 3.554
L59.076 3.516
L61.318 3.516
L61.318 3.364
L58.696 3.364
L58.696 3.668
L60.824 5.340
L60.976 5.340
L60.976 5.188
L58.886 3.592
L58.886 3.440
L58.506 3.250
L61.432 3.250
L61.432 3.630
L59.456 3.630
L61.356 5.074
L61.356 5.606
L58.620 5.606
L58.620 5.226
L60.406 5.226
L58.506 3.782
L58.506 3.250
M64.700 5.340 
L62.800 5.340
L62.800 5.492
L65.194 5.492
L65.194 5.074
L63.104 3.554
L63.104 3.516
L65.346 3.516
L65.346 3.364
L62.724 3.364
L62.724 3.668
L64.852 5.340
L65.004 5.340
L65.004 5.188
L62.914 3.592
L62.914 3.440
L62.534 3.250
L65.460 3.250
L65.460 3.630
L63.484 3.630
L65.384 5.074
L65.384 5.606
L62.648 5.606
L62.648 5.226
L64.434 5.226
L62.534 3.782
L62.534 3.250
M68.842 6.404 
L68.842 3.364
L68.956 3.364
L68.956 6.556
L67.778 6.556
L66.866 5.720
L66.980 5.568
L67.816 6.366
L68.690 6.366
L68.690 3.364
L68.538 3.364
L68.538 6.214
L68.386 6.214
L67.892 6.214
L66.942 5.340
L66.600 5.720
L67.702 6.746
L69.146 6.746
L69.146 3.250
L68.386 3.250
L68.386 6.214
M70.818 5.644 
A11.171,11.171 0 0,1 70.818,4.238
A0.699,0.699 0 0,1 71.350,3.706
A11.489,11.489 0 0,1 73.516,3.744
A0.702,0.702 0 0,1 73.934,4.238
L73.934 5.720
A0.621,0.621 0 0,1 73.440,6.252
A6.090,6.090 0 0,1 71.160,6.176
A0.576,0.576 0 0,1 70.818,5.644
L71.008 5.492
L71.008 4.466
A0.611,0.611 0 0,1 71.578,3.858
A8.464,8.464 0 0,1 73.174,3.858
A0.611,0.611 0 0,1 73.744,4.466
L73.744 5.530
A0.611,0.611 0 0,1 73.174,6.138
A8.464,8.464 0 0,1 71.578,6.138
A0.651,0.651 0 0,1 71.008,5.492
L70.628 5.682
A16.503,16.503 0 0,1 70.666,4.124
A0.630,0.630 0 0,1 71.274,3.554
A12.293,12.293 0 0,1 73.592,3.554
A0.661,0.661 0 0,1 74.086,4.086
L74.124 5.872
A0.575,0.575 0 0,1 73.630,6.366
A8.255,8.255 0 0,1 71.046,6.366
A0.648,0.648 0 0,1 70.628,5.682
L70.438 5.872
A29.573,29.573 0 0,1 70.476,4.010
A0.643,0.643 0 0,1 70.894,3.440
A11.659,11.659 0 0,1 73.820,3.440
A0.612,0.612 0 0,1 74.276,4.010
A20.928,20.928 0 0,1 74.314,5.986
A0.652,0.652 0 0,1 73.858,6.518
A7.912,7.912 0 0,1 70.894,6.518
A0.638,0.638 0 0,1 70.438,5.872
L70.248 6.024
L70.248 3.972
A0.681,0.681 0 0,1 70.856,3.288
A16.123,16.123 0 0,1 73.896,3.288
A0.681,0.681 0 0,1 74.504,3.972
L74.504 6.024
A0.681,0.681 0 0,1 73.896,6.708
A16.123,16.123 0 0,1 70.856,6.708
A0.681,0.681 0 0,1 70.248,6.024
M76.214 5.644 
A11.171,11.171 0 0,1 76.214,4.238
A0.699,0.699 0 0,1 76.746,3.706
A11.489,11.489 0 0,1 78.912,3.744
A0.702,0.702 0 0,1 79.330,4.238
L79.330 5.720
A0.621,0.621 0 0,1 78.836,6.252
A6.090,6.090 0 0,1 76.556,6.176
A0.576,0.576 0 0,1 76.214,5.644
L76.404 5.492
L76.404 4.466
A0.611,0.611 0 0,1 76.974,3.858
A8.464,8.464 0 0,1 78.570,3.858
A0.611,0.611 0 0,1 79.140,4.466
L79.140 5.530
A0.611,0.611 0 0,1 78.570,6.138
A8.464,8.464 0 0,1 76.974,6.138
A0.651,0.651 0 0,1 76.404,5.492
L76.024 5.682
A16.503,16.503 0 0,1 76.062,4.124
A0.630,0.630 0 0,1 76.670,3.554
A12.293,12.293 0 0,1 78.988,3.554
A0.661,0.661 0 0,1 79.482,4.086
L79.520 5.872
A0.575,0.575 0 0,1 79.026,6.366
A8.255,8.255 0 0,1 76.442,6.366
A0.648,0.648 0 0,1 76.024,5.682
L75.834 5.872
A29.573,29.573 0 0,1 75.872,4.010
A0.643,0.643 0 0,1 76.290,3.440
A11.659,11.659 0 0,1 79.216,3.440
A0.612,0.612 0 0,1 79.672,4.010
A20.928,20.928 0 0,1 79.710,5.986
A0.652,0.652 0 0,1 79.254,6.518
A7.912,7.912 0 0,1 76.290,6.518
A0.638,0.638 0 0,1 75.834,5.872
L75.644 6.024
L75.644 3.972
A0.681,0.681 0 0,1 76.252,3.288
A16.123,16.123 0 0,1 79.292,3.288
A0.681,0.681 0 0,1 79.900,3.972
L79.900 6.024
A0.681,0.681 0 0,1 79.292,6.708
A16.123,16.123 0 0,1 76.252,6.708
A0.681,0.681 0 0,1 75.644,6.024
M81.610 5.644 
A11.171,11.171 0 0,1 81.610,4.238
A0.699,0.699 0 0,1 82.142,3.706
A11.489,11.489 0 0,1 84.308,3.744
A0.702,0.702 0 0,1 84.726,4.238
L84.726 5.720
A0.621,0.621 0 0,1 84.232,6.252
A6.090,6.090 0 0,1 81.952,6.176
A0.576,0.576 0 0,1 81.610,5.644
L81.800 5.492
L81.800 4.466
A0.611,0.611 0 0,1 82.370,3.858
A8.464,8.464 0 0,1 83.966,3.858
A0.611,0.611 0 0,1 84.536,4.466
L84.536 5.530
A0.611,0.611 0 0,1 83.966,6.138
A8.464,8.464 0 0,1 82.370,6.138
A0.651,0.651 0 0,1 81.800,5.492
L81.420 5.682
A16.503,16.503 0 0,1 81.458,4.124
A0.630,0.630 0 0,1 82.066,3.554
A12.293,12.293 0 0,1 84.384,3.554
A0.661,0.661 0 0,1 84.878,4.086
L84.916 5.872
A0.575,0.575 0 0,1 84.422,6.366
A8.255,8.255 0 0,1 81.838,6.366
A0.648,0.648 0 0,1 81.420,5.682
L81.230 5.872
A29.573,29.573 0 0,1 81.268,4.010
A0.643,0.643 0 0,1 81.686,3.440
A11.659,11.659 0 0,1 84.612,3.440
A0.612,0.612 0 0,1 85.068,4.010
A20.928,20.928 0 0,1 85.106,5.986
A0.652,0.652 0 0,1 84.650,6.518
A7.912,7.912 0 0,1 81.686,6.518
A0.638,0.638 0 0,1 81.230,5.872
L81.040 6.024
L81.040 3.972
A0.681,0.681 0 0,1 81.648,3.288
A16.123,16.123 0 0,1 84.688,3.288
A0.681,0.681 0 0,1 85.296,3.972
L85.296 6.024
A0.681,0.681 0 0,1 84.688,6.708
A16.123,16.123 0 0,1 81.648,6.708
A0.681,0.681 0 0,1 81.040,6.024"
fill="none" vector-effect="non-scaling-stroke" stroke="#000000" stroke-width="0.200mm" fpd:engraving_ral_9005="1" />
<path d="M27.500 19.910 L28.260 20.670L28.260 17.250
M30.920 20.670 
L29.210 20.670
L29.210 19.074
A1.302,1.302 0 0,0 30.122,19.340
A1.100,1.100 0 0,0 30.806,17.478
A1.026,1.026 0 0,0 29.172,17.706
M31.984 20.670 L33.124 17.250L34.264 20.670"
fill="none" vector-effect="non-scaling-stroke" stroke="#000000" stroke-width="0.200mm" fpd:engraving_ral_9005="1" />
<path d="M66.500 10.750 
L66.500 14.170
L67.754 14.170
A0.855,0.855 0 0,0 67.754,12.460
L66.500 12.460
L67.830 12.460
L68.590 10.750
M69.464 14.170 
L69.464 11.814
A1.140,1.140 0 0,1 71.744,11.814
L71.744 14.170
M72.656 10.750 
L72.656 14.170
L74.936 10.750
L74.936 14.170"
fill="none" vector-effect="non-scaling-stroke" stroke="#000000" stroke-width="0.200mm" fpd:engraving_ral_9005="1" />
<path d="M66.500 26.750 
L66.500 30.170
L67.754 30.170
A0.855,0.855 0 0,0 67.754,28.460
L66.500 28.460
M69.464 26.750 
L69.464 30.170
L70.718 30.170
A0.855,0.855 0 0,0 70.718,28.460
L69.464 28.460
L70.794 28.460
L71.554 26.750
M74.024 28.460 
L74.860 28.460
L74.860 27.890
A1.216,1.216 0 0,0 72.428,27.890
L72.428 29.030
A1.171,1.171 0 0,0 74.594,29.676"
fill="none" vector-effect="non-scaling-stroke" stroke="#000000" stroke-width="0.200mm" fpd:engraving_ral_9005="1" />
<path d="M71.000 45.030 L72.900 42.750
M71.000 42.750 L72.900 45.030
M73.812 45.410 L74.572 46.170L74.572 42.750
M75.484 45.258 
L75.484 43.662
A0.988,0.988 0 0,1 77.460,43.662
L77.460 45.258
A0.988,0.988 0 0,1 75.484,45.258"
fill="none" vector-effect="non-scaling-stroke" stroke="#000000" stroke-width="0.200mm" fpd:engraving_ral_9005="1" />
<path d="M71.000 37.750 
L71.000 40.030
L71.000 39.270
A0.760,0.760 0 0,0 72.520,39.270
L72.520 37.750
L72.520 39.270
A0.760,0.760 0 0,0 74.040,39.270
L74.040 37.750
M75.332 38.700 L77.232 38.700
M74.952 37.750 L76.282 41.170L77.612 37.750"
fill="none" vector-effect="non-scaling-stroke" stroke="#000000" stroke-width="0.200mm" fpd:engraving_ral_9005="1" />
<path d="M44.248 20.670 
L42.538 20.670
L42.538 19.074
A1.302,1.302 0 0,0 43.450,19.340
A1.100,1.100 0 0,0 44.134,17.478
A1.026,1.026 0 0,0 42.500,17.706
M45.312 20.670 L46.452 17.250L47.592 20.670"
fill="none" vector-effect="non-scaling-stroke" stroke="#000000" stroke-width="0.200mm" fpd:engraving_ral_9005="1" />
<path d="M5.500 8.250 
L5.500 11.670
L6.754 11.670
A0.855,0.855 0 0,0 6.754,9.960
L5.500 9.960
M8.464 9.200 
L8.464 9.580
A0.950,0.950 0 0,0 10.364,9.580
L10.364 9.200
A0.950,0.950 0 0,0 8.464,9.200
M11.276 10.530 
L12.036 8.250
L12.796 10.530
L13.556 8.250
L14.316 10.530
M15.228 9.390 
L17.128 9.390
L17.128 9.580
A0.950,0.950 0 0,1 15.228,9.580
L15.228 9.200
A0.996,0.996 0 0,1 17.014,8.592
M18.040 8.250 
L18.040 10.530
L18.040 9.770
A0.840,0.840 0 0,0 18.230,10.302
A0.541,0.541 0 0,0 19.066,10.302"
fill="none" vector-effect="non-scaling-stroke" stroke="#000000" stroke-width="0.200mm" fpd:engraving_ral_9005="1" />
<path d="M95.000 10.500 A1.500,1.500 0 1,1 93.500,9.000"
fill="none" vector-effect="non-scaling-stroke" stroke="#000000" stroke-width="0.100mm" />
<circle cx="93.500" cy="10.500" r="1.229"
fill="#ffffff" vector-effect="non-scaling-stroke" stroke="#000000" stroke-width="0.100mm" 
/>
<path d="M95.000 70.000 A1.500,1.500 0 1,1 93.500,68.500"
fill="none" vector-effect="non-scaling-stroke" stroke="#000000" stroke-width="0.100mm" />
<circle cx="93.500" cy="70.000" r="1.229"
fill="#ffffff" vector-effect="non-scaling-stroke" stroke="#000000" stroke-width="0.100mm" 
/>
<path d="M168.000 77.000 A1.500,1.500 0 1,1 166.500,75.500"
fill="none" vector-effect="non-scaling-stroke" stroke="#000000" stroke-width="0.100mm" />
<circle cx="166.500" cy="77.000" r="1.229"
fill="#ffffff" vector-effect="non-scaling-stroke" stroke="#000000" stroke-width="0.100mm" 
/>
<path d="M95.000 153.000 A1.500,1.500 0 1,1 93.500,151.500"
fill="none" vector-effect="non-scaling-stroke" stroke="#000000" stroke-width="0.100mm" />
<circle cx="93.500" cy="153.000" r="1.229"
fill="#ffffff" vector-effect="non-scaling-stroke" stroke="#000000" stroke-width="0.100mm" 
/>
<path d="M179.200 135.500 A1.500,1.500 0 1,1 177.700,134.000"
fill="none" vector-effect="non-scaling-stroke" stroke="#000000" stroke-width="0.100mm" />
<circle cx="177.700" cy="135.500" r="1.229"
fill="#ffffff" vector-effect="non-scaling-stroke" stroke="#000000" stroke-width="0.100mm" 
/>
<path d="M207.500 58.500 A1.500,1.500 0 1,1 206.000,57.000"
fill="none" vector-effect="non-scaling-stroke" stroke="#000000" stroke-width="0.100mm" />
<circle cx="206.000" cy="58.500" r="1.229"
fill="#ffffff" vector-effect="non-scaling-stroke" stroke="#000000" stroke-width="0.100mm" 
/>
<path d="M295.000 84.500 A1.500,1.500 0 1,1 293.500,83.000"
fill="none" vector-effect="non-scaling-stroke" stroke="#000000" stroke-width="0.100mm" />
<circle cx="293.500" cy="84.500" r="1.229"
fill="#ffffff" vector-effect="non-scaling-stroke" stroke="#000000" stroke-width="0.100mm" 
/>
<path d="M14.500 157.500 A1.500,1.500 0 1,1 13.000,156.000"
fill="none" vector-effect="non-scaling-stroke" stroke="#000000" stroke-width="0.100mm" />
<circle cx="13.000" cy="157.500" r="1.229"
fill="#ffffff" vector-effect="non-scaling-stroke" stroke="#000000" stroke-width="0.100mm" 
/>
<path d="M76.500 157.500 A1.500,1.500 0 1,1 75.000,156.000"
fill="none" vector-effect="non-scaling-stroke" stroke="#000000" stroke-width="0.100mm" />
<circle cx="75.000" cy="157.500" r="1.229"
fill="#ffffff" vector-effect="non-scaling-stroke" stroke="#000000" stroke-width="0.100mm" 
/>
<path d="M76.500 62.500 A1.500,1.500 0 1,1 75.000,61.000"
fill="none" vector-effect="non-scaling-stroke" stroke="#000000" stroke-width="0.100mm" />
<circle cx="75.000" cy="62.500" r="1.229"
fill="#ffffff" vector-effect="non-scaling-stroke" stroke="#000000" stroke-width="0.100mm" 
/>
<path d="M14.500 62.500 A1.500,1.500 0 1,1 13.000,61.000"
fill="none" vector-effect="non-scaling-stroke" stroke="#000000" stroke-width="0.100mm" />
<circle cx="13.000" cy="62.500" r="1.229"
fill="#ffffff" vector-effect="non-scaling-stroke" stroke="#000000" stroke-width="0.100mm" 
/>
<circle cx="22.000" cy="156.500" r="3.000"
fill="#ffffff" vector-effect="non-scaling-stroke" stroke="#000000" stroke-width="0.100mm" 
/>
<circle cx="296.500" cy="22.000" r="3.000"
fill="#ffffff" vector-effect="non-scaling-stroke" stroke="#000000" stroke-width="0.100mm" 
/>
<circle cx="30.500" cy="27.000" r="3.000"
fill="#ffffff" vector-effect="non-scaling-stroke" stroke="#000000" stroke-width="0.100mm" 
/>
<circle cx="30.500" cy="11.000" r="3.000"
fill="#ffffff" vector-effect="non-scaling-stroke" stroke="#000000" stroke-width="0.100mm" 
/>
<circle cx="70.500" cy="20.500" r="3.000"
fill="#ffffff" vector-effect="non-scaling-stroke" stroke="#000000" stroke-width="0.100mm" 
/>
<path d="M64.793 55.000 
A0.500,0.500 0 0,0 65.500,54.293
L65.500 36.707
A0.500,0.500 0 0,0 64.793,36.000
L23.207 36.000
A0.500,0.500 0 0,0 22.500,36.707
L22.500 54.293
A0.500,0.500 0 0,0 23.207,55.000
L64.793 55.000z"
fill="#ffffff" vector-effect="non-scaling-stroke" stroke="#000000" stroke-width="0.100mm" />
<rect x="92.500" y="78.500" width="9.000" height="19.000" rx="1.250"
fill="#ffffff" vector-effect="non-scaling-stroke" stroke="#000000" stroke-width="0.100mm" 
/>
<rect x="20.500" y="59.500" width="19.000" height="9.000" rx="1.250"
fill="#ffffff" vector-effect="non-scaling-stroke" stroke="#000000" stroke-width="0.100mm" 
/>
<circle cx="4.600" cy="157.400" r="1.500"
fill="#ffffff" vector-effect="non-scaling-stroke" stroke="#000000" stroke-width="0.100mm" 
/>
<circle cx="152.000" cy="157.400" r="1.500"
fill="#ffffff" vector-effect="non-scaling-stroke" stroke="#000000" stroke-width="0.100mm" 
/>
<circle cx="299.600" cy="157.400" r="1.500"
fill="#ffffff" vector-effect="non-scaling-stroke" stroke="#000000" stroke-width="0.100mm" 
/>
<circle cx="299.600" cy="4.600" r="1.500"
fill="#ffffff" vector-effect="non-scaling-stroke" stroke="#000000" stroke-width="0.100mm" 
/>
<circle cx="152.000" cy="4.600" r="1.500"
fill="#ffffff" vector-effect="non-scaling-stroke" stroke="#000000" stroke-width="0.100mm" 
/>
<circle cx="4.600" cy="4.600" r="1.500"
fill="#ffffff" vector-effect="non-scaling-stroke" stroke="#000000" stroke-width="0.100mm" 
/>
<circle cx="44.500" cy="27.000" r="3.000"
fill="#ffffff" vector-effect="non-scaling-stroke" stroke="#000000" stroke-width="0.100mm" 
/>
<circle cx="44.500" cy="11.000" r="3.000"
fill="#ffffff" vector-effect="non-scaling-stroke" stroke="#000000" stroke-width="0.100mm" 
/>
<path d="M17.743 32.700 
A0.500,0.500 0 0,0 18.450,31.993
L18.450 14.007
A0.500,0.500 0 0,0 17.743,13.300
L6.257 13.300
A0.500,0.500 0 0,0 5.550,14.007
L5.550 31.993
A0.500,0.500 0 0,0 6.257,32.700
L17.743 32.700z"
fill="#ffffff" vector-effect="non-scaling-stroke" stroke="#000000" stroke-width="0.100mm" />
<circle cx="205.000" cy="35.000" r="1.500"
fill="#ffffff" vector-effect="non-scaling-stroke" stroke="#000000" stroke-width="0.100mm" 
/>
<circle cx="235.000" cy="35.000" r="1.500"
fill="#ffffff" vector-effect="non-scaling-stroke" stroke="#000000" stroke-width="0.100mm" 
/>
<circle cx="205.000" cy="15.000" r="1.500"
fill="#ffffff" vector-effect="non-scaling-stroke" stroke="#000000" stroke-width="0.100mm" 
/>
<circle cx="235.000" cy="15.000" r="1.500"
fill="#ffffff" vector-effect="non-scaling-stroke" stroke="#000000" stroke-width="0.100mm" 
/>
<circle cx="195.000" cy="85.000" r="1.000"
fill="#ffffff" vector-effect="non-scaling-stroke" stroke="#000000" stroke-width="0.100mm" 
/>
<circle cx="195.000" cy="118.000" r="1.000"
fill="#ffffff" vector-effect="non-scaling-stroke" stroke="#000000" stroke-width="0.100mm" 
/>
<circle cx="268.500" cy="145.000" r="1.500"
fill="#ffffff" vector-effect="non-scaling-stroke" stroke="#000000" stroke-width="0.100mm" 
/>
<circle cx="268.500" cy="57.000" r="1.500"
fill="#ffffff" vector-effect="non-scaling-stroke" stroke="#000000" stroke-width="0.100mm" 
/>
<path d="M304.200 162.000 
L0.000 162.000
L0.000 162.000
L0.000 0.000
L0.000 0.000
L304.200 0.000
L304.200 0.000
L304.200 162.000
L304.200 162.000"
fill="none" vector-effect="non-scaling-stroke" stroke="#000000" stroke-width="0.100mm" />
</g>
</svg>
